<?xml version="1.0" encoding="utf-8"?>
<!-- Generator: Adobe Illustrator 22.0.1, SVG Export Plug-In . SVG Version: 6.00 Build 0)  -->
<svg version="1.1" id="Layer_1" xmlns="http://www.w3.org/2000/svg" xmlns:xlink="http://www.w3.org/1999/xlink" x="0px" y="0px"
	 viewBox="0 0 84 40" style="enable-background:new 0 0 84 40;" xml:space="preserve">
<style type="text/css">
	.st0{display:none;}
	.st1{display:inline;stroke:#000000;stroke-miterlimit:10;}
	.st2{fill:#FFFFFF;}
</style>
<g id="Layer_2_1_" class="st0">
	<rect class="st1" width="84" height="40"/>
</g>
<g id="Layer_1_1_">
	<g>
		<path class="st2" d="M0,8.3h5.7l5.6,16.2l5.6-16.2h5.7l-8,23.3H8L0,8.3z"/>
		<path class="st2" d="M22.2,31.7V8.3h8.5c3.8,0,6.9,1.3,9.1,3.4s3.3,5,3.3,8.2c0,1.9-0.4,3.9-1.3,5.6s-2.2,3.3-4,4.4
			s-4.1,1.8-6.8,1.8H22.2z M27.6,13.4v13.1h2.3c2.8,0,4.8-1,6.1-2.2c1.3-1.3,1.8-2.9,1.8-4.4c0-1.6-0.8-3.3-2.2-4.5s-3.4-2.1-6-2.1
			h-2C27.6,13.3,27.6,13.4,27.6,13.4z"/>
		<path class="st2" d="M42.2,31.6l6.6-19.1l1.4-4.2h5l1.5,4.2l6.6,19.1h-7.7v5.3h-6v-5.3C49.6,31.6,42.2,31.6,42.2,31.6z"/>
		<path class="st2" d="M64.8,31.7V8.3h6.9c1.4,0,2.9,0.1,4.2,0.4c1.4,0.4,2.6,0.9,3.5,1.8c0.9,0.9,1.5,2.2,1.5,3.9
			c0,1.2-0.3,2.2-0.8,3s-1.1,1.4-1.8,1.9c2.4,1,3.6,2.7,3.6,5.5c0,2.1-0.7,3.6-1.8,4.5c-1.1,1-2.7,1.6-4.5,1.9s-3.9,0.4-6,0.4h-4.8
			L64.8,31.7L64.8,31.7z M70.2,12.2v5.4c2.1,0,3.4,0,4.4-0.4c0.9-0.3,1.3-1,1.3-2.2c0-1.3-0.4-2-1.3-2.4S72.3,12.2,70.2,12.2
			L70.2,12.2z M70.2,22v5.9c2.2,0,3.9-0.1,5.1-0.4C76.4,27,77,26.3,77,25s-0.5-2.1-1.6-2.5c-1-0.4-2.6-0.5-4.5-0.5H70.2z"/>
	</g>
	<rect x="22.8" y="36.7" class="st2" width="40.3" height="3.3"/>
	<rect x="22.8" class="st2" width="40.3" height="3.3"/>
</g>
<g id="Layer_3" class="st0">
</g>
</svg>
